PathFileType	4	(X/Y/Z)	D:\TRACE\v60_Jaco2_6-2-23\BothDRS_Motion3_1-v60.trc
DataRate	CameraRate	NumFrames	NumMarkers	Units	OrigDataRate	OrigDataStartFrame	OrigNumFrames
100.00	100.00	      17	9	mm	100.00	4376	      7000
Frame#	Time	front left toe			Front right toe			aft left toe			aft right toe			Arm			FL body			FR body			AL Body			AR Body			
		X1	Y1	Z1	X2	Y2	Z2	X3	Y3	Z3	X4	Y4	Z4	X5	Y5	Z5	X6	Y6	Z6	X7	Y7	Z7	X8	Y8	Z8	X9	Y9	Z9	

4376	43.750	-116.58996	-8.92771	-229.92419	271.98956	-14.86415	-249.23694	-85.22538	54.52478	373.50851	258.75830	56.13736	380.35452	103.92613	965.90637	-817.60571	-7.57526	461.90396	-413.38748	149.99794	457.20346	-417.65582	30.60109	640.33044	513.13220	179.41693	626.10333	509.31595	
4377	43.760	-112.56596	-5.12112	-226.34816	272.26413	-14.49298	-248.88420	-83.91033	54.07378	373.88907	257.07510	64.11359	380.94089	103.52814	966.23767	-818.71375	-7.23991	462.68600	-413.51172	149.98746	458.15323	-417.97400	31.77383	641.00800	513.05762	181.19914	626.53729	509.28726	
4378	43.770	-109.55841	5.03249	-225.60820	272.19064	-14.51792	-249.04080	-82.34367	52.68976	374.25943	256.25851	71.84494	381.87537	104.23552	965.80273	-818.73077	-6.74870	463.40891	-413.41397	150.57994	458.48413	-418.28131	33.56704	641.40894	512.87103	184.33009	626.48029	509.14664	
4379	43.780	-108.06760	16.11836	-226.47403	272.37155	-14.52441	-248.94635	-82.50552	52.57628	374.04953	256.43832	83.99909	381.19138	105.15105	965.40466	-818.29883	-6.33285	463.98514	-413.72018	151.63174	458.45096	-418.46802	34.51972	641.54083	512.79913	185.56909	626.41821	508.96402	
4380	43.790	-108.60540	26.99441	-227.49538	272.72327	-14.55839	-248.86012	-83.29096	53.19056	374.34052	258.18674	95.41708	379.46301	105.70428	965.46704	-818.39136	-5.46889	463.81360	-413.73788	152.34642	458.78180	-418.61737	35.34541	641.37256	512.83630	186.09212	626.33148	508.90503	
4381	43.800	-109.29784	39.39276	-228.83095	272.95380	-14.62250	-248.82953	-83.29646	52.94456	374.41650	261.23401	106.90723	375.86472	106.33695	965.76160	-818.48883	-5.01502	463.71750	-413.84546	152.30113	459.30814	-418.58429	35.76491	640.70581	512.99817	186.88780	625.93524	509.13235	
4382	43.810	-109.64331	51.85711	-229.93126	273.05075	-14.63431	-248.77414	-82.88693	52.12118	374.29117	266.66013	120.06762	374.57626	107.09974	966.32373	-818.01740	-4.04679	463.57486	-413.97482	152.55135	459.37177	-418.56741	35.71035	640.03473	512.87939	188.09235	625.41852	509.91376	
4383	43.820	-109.02032	63.65242	-230.78378	273.14697	-14.57300	-248.69090	-82.90899	51.80976	374.45493	270.90915	131.83766	372.76465	107.93143	966.64313	-817.47119	-3.72443	463.79584	-414.33188	153.66766	458.53189	-418.81497	35.91242	639.55707	512.82190	187.52831	624.69269	509.45490	
4384	43.830	-108.16599	74.89557	-231.48531	273.37012	-14.48058	-248.54257	-82.97004	51.48270	374.37964	273.75635	143.28931	371.13074	108.93134	967.26849	-817.18201	-3.12128	463.93182	-414.50165	153.92673	458.60318	-418.87164	36.22904	639.13739	512.91913	187.58084	624.07806	509.44153	
4385	43.840	-107.65999	86.22074	-232.27097	273.63666	-14.38765	-248.44092	-82.95241	51.44916	374.49631	276.09210	154.16512	369.88788	110.43032	967.91882	-816.84015	-2.54812	463.92758	-414.56607	154.20163	458.70929	-418.83554	36.29550	638.49152	513.03851	186.03198	623.67596	509.43268	
4386	43.850	-107.13914	96.19610	-233.34773	273.90356	-14.23612	-248.35184	-82.86761	51.26366	374.53189	277.58221	164.00102	368.63394	112.20218	968.12939	-816.43219	-2.18365	463.92255	-414.50830	154.43712	458.74448	-418.83200	36.08814	638.06915	513.08344	187.63235	623.22076	509.72391	
4387	43.860	-106.88796	104.88276	-234.21364	274.02701	-14.14235	-248.20155	-82.96052	51.02088	374.61847	278.30701	171.95039	367.71069	113.37280	967.98889	-816.26923	-1.80971	463.93518	-414.25449	154.75632	458.80905	-418.61523	35.89756	637.88885	513.11090	187.47658	623.09314	509.80960	
4388	43.870	-106.99998	111.18866	-234.82748	274.31088	-13.69901	-247.77205	-82.70554	50.88569	374.84586	279.14285	176.93872	367.59625	114.17115	967.78601	-815.96973	-1.29126	463.98447	-414.05777	154.85522	459.05212	-418.43893	35.79511	637.76025	513.29333	187.12904	622.89783	510.08896	
4389	43.880	-106.88626	111.86237	-234.17082	274.37445	-13.52131	-247.74080	-82.61952	50.62728	374.78403	279.71158	179.50592	368.14725	114.63000	967.74310	-815.82220	-0.54348	464.05914	-413.99219	160.47531	457.83063	-418.08258	35.62141	637.44360	513.45563	186.63562	622.68903	510.38739	
4390	43.890	-106.80052	110.92890	-233.71306	274.42960	-13.46021	-247.57079	-82.34598	50.41314	374.93274	281.29865	178.85446	368.76657	115.01852	967.76959	-815.46368	-0.24913	464.22379	-414.43774	159.13821	458.68509	-417.41501	35.36166	637.36249	513.61951	186.29692	622.66730	510.74915	
4391	43.900	-107.22764	110.49410	-233.98676	274.53729	-13.44263	-247.45163	-82.76109	50.64457	375.14151	282.25226	175.58412	369.15460	115.18005	967.95886	-815.09290	0.24284	464.43542	-413.62766	161.92574	458.17166	-417.63742	34.89337	637.33893	513.82587	185.95168	622.59186	511.18018	
4392	43.910	-107.13074	107.45394	-234.14891	274.56009	-13.36733	-247.30453	-82.66529	50.27511	375.17569	282.75262	170.78235	369.54068	115.48277	968.53937	-814.67035	1.37231	464.62537	-413.68842	160.23711	458.81210	-416.87427	33.96618	637.27679	514.01434	185.33926	622.40112	511.51120	
